<?xml version="1.0" encoding="utf-8"?>
<!-- Generator: Adobe Illustrator 22.0.0, SVG Export Plug-In . SVG Version: 6.00 Build 0)  -->
<svg version="1.1" xmlns="http://www.w3.org/2000/svg" xmlns:xlink="http://www.w3.org/1999/xlink" x="0px" y="0px"
	 viewBox="0 0 58.1 58.1" style="enable-background:new 0 0 58.1 58.1;" xml:space="preserve">
<style type="text/css">
	.st0{fill:#DC3545;}
</style>
<g id="Capa_1">
	<g>
		<path class="st0" d="M29,11.5c2.8,0,5.2-2.3,5.2-5.2V5.2c0-1.1-0.3-2.1-0.9-2.9c0.1,0,0.2-0.1,0.3-0.1c0.2-0.1,0.3-0.1,0.4-0.1
			c0.1,0,0.2,0.1,0.3,0.1c0,0,0,0.1,0.1,0.1c0,0.1,0,0.2,0,0.3c0,0.1,0,0.3,0,0.4c0,0.2,0,0.4,0,0.6c0,0.2-0.1,0.4-0.1,0.5
			c-0.1,0.8,0.1,1.6,0.4,2.3c0.4,0.7,1.1,1.3,1.8,1.6c0.8,0.3,1.6,0.4,2.4,0.2c0.8-0.1,1.5-0.4,2.2-0.8c0.3-0.2,0.6-0.4,0.9-0.7
			c0.3-0.3,0.5-0.6,0.7-0.9c-0.4,0.1-0.7,0.2-1.1,0.3s-0.7,0.2-1,0.4c-0.3,0.1-0.6,0.3-0.9,0.4C39.3,7,39,7.1,38.7,7.2
			c-0.6,0.1-1.3,0.1-1.8-0.1c-0.6-0.2-1.1-0.6-1.4-1.1c-0.2-0.2-0.3-0.5-0.4-0.8c0.3,0.3,0.6,0.5,1,0.6c0.6,0.2,1.2,0.2,1.8,0
			c0.6-0.1,1.1-0.4,1.5-0.7c0.2-0.2,0.4-0.4,0.6-0.6c0.2-0.2,0.3-0.5,0.3-0.8c-0.3,0-0.6,0.1-0.8,0.2C39.2,4,39,4.1,38.8,4.2
			c-0.2,0.1-0.4,0.2-0.6,0.3c-0.2,0.1-0.4,0.2-0.6,0.2c-0.4,0.1-0.8,0.1-1.2,0c-0.4-0.1-0.7-0.3-1-0.6C35.2,3.8,35.1,3.4,35,3
			c0,0,0,0,0-0.1c0-0.1,0-0.2,0-0.2c0,0,0,0,0-0.1c0-0.1,0-0.3,0-0.4c0-0.1,0-0.3-0.1-0.4c0-0.1-0.1-0.3-0.3-0.4
			c-0.1-0.1-0.2-0.1-0.3-0.1c-0.1,0-0.2,0-0.3,0c-0.2,0-0.3,0.1-0.4,0.2c-0.2,0.1-0.4,0.3-0.6,0.5c0,0,0,0,0,0C32,0.7,30.6,0,29,0
			c-2.8,0-5.2,2.3-5.2,5.2v1.2C23.8,9.2,26.1,11.5,29,11.5z M24.6,5c0-0.6,0.5-1.1,1.1-1.1h6.5c0.6,0,1.1,0.5,1.1,1.1
			c0,0.6-0.5,1.1-1.1,1.1h-6.5C25,6.1,24.6,5.6,24.6,5z M18.4,4.1L18,3.5l1.8,0.8l0.3,0.6L18.4,4.1z M19.5,6.3l1.8,0.8l0.3,0.6
			l-1.8-0.8L19.5,6.3z M19.5,3.7l-1.2-0.6L19,2.7L19.5,3.7z M18.7,4.8l1.8,0.8l0.4,0.8l-1.8-0.8L18.7,4.8z M16.1,31.4h5
			c0,0.3,0,0.7,0.1,1c0.2,3.2-4.7,3.2-4.9,0C16.1,32.1,16.1,31.8,16.1,31.4z M42,27.3h0.2v3.8h-0.3c0-0.3,0-0.7,0.1-1h0
			C42,29.2,42,28.3,42,27.3l-5.1,0c0-0.7-0.1-1.4-0.1-2.2c-0.1-1.1-0.3-5-1.2-7.1c-0.1,0.3-0.1,0.4-0.1,0.4c0,3.4,0.6,13.5,0.6,13.5
			H36l0,0.1H30h-2h-6.2c0,0,0.6-10.1,0.6-13.5c0,0,0-0.2-0.1-0.4c-1,2.1-1.1,6.1-1.2,7.1C21.1,26,21,26.8,21,27.6h0.4v3.8H21
			c0-0.5,0-0.9,0-1.4h0c0-0.8,0-1.6,0-2.4h-5.1c0-6.3,1-14.2,6.5-15.6l-1.3-2.6l-0.6,0.3l-0.3-0.6l0.6-0.3l-0.7-1.3l1.7,0.8L22.5,8
			l0.3,0.6l-0.6,0.3l1.5,2.9c0.4-0.1,0.8-0.2,0.8-0.2c0.1,0,0.1,0,0.2,0l4.5,4l3.6-4c0.1,0,0.3,0,0.4,0c0.1,0,0.2,0,0.3,0
			c0,0,0.1,0,0.1,0c0.5,0,1,0.1,1.4,0.2v0C40.9,12.9,42,20.8,42,27.3z M41.9,31.1c0,0.5-0.1,0.9-0.1,1.3c-0.2,3.2-5.2,3.2-4.9,0
			c0-0.4,0-0.9,0.1-1.3h-0.2v-3.8H37c0,0.9,0,1.8,0,2.7h0c0,0.4,0,0.8,0,1.2H41.9z M35.7,33.6l0,19.6l-0.3,0.4l0,1.7
			c0,0.4-0.1,0.8-0.3,1.1c-0.4,1-1.3,1.6-2.4,1.6c-1,0-1.8-0.5-2.3-1.3c-0.3-0.4-0.5-1-0.5-1.5v-1.8l-0.3-0.4l0.3-12.6H28l0.3,12.6
			L28,53.5v1.9c0,1.5-1.2,2.7-2.7,2.7c0,0,0,0-0.1,0c0,0,0,0,0,0c-0.7,0-1.3-0.3-1.7-0.6c-0.6-0.5-1-1.2-1-2l0-1.8l-0.3-0.4l0-19.5
			h0.4v-0.1h2.6h7.5v0C32.7,33.6,35.7,33.6,35.7,33.6z M16,30.1c0,0.5,0,0.9,0.1,1.3h-0.7v-3.8h0.5C15.9,28.5,15.9,29.3,16,30.1
			L16,30.1z"/>
	</g>
</g>
<g id="Layer_2">
</g>
</svg>
